<svg id="svg" version="1.1" xmlns="http://www.w3.org/2000/svg" xmlns:xlink="http://www.w3.org/1999/xlink" width="400" height="405.4054054054054" viewBox="0, 0, 400,405.4054054054054"><g id="svgg"><path id="path0" d="M189.438 23.514 L 189.730 47.027 194.297 47.358 L 198.863 47.689 199.161 30.601 L 199.459 13.514 208.429 30.541 L 217.399 47.568 222.754 47.568 L 228.108 47.568 228.108 23.784 L 228.108 0.000 223.207 -0.000 L 218.306 -0.000 219.031 15.946 C 219.429 24.716,219.498 31.649,219.183 31.351 C 218.869 31.054,216.071 25.946,212.966 20.000 C 201.950 -1.095,202.904 -0.000,195.552 0.000 L 189.147 0.000 189.438 23.514 M168.108 22.598 C 95.252 38.541,40.682 91.787,24.520 162.703 C 22.646 170.925,23.019 171.892,28.066 171.892 C 33.035 171.892,33.918 170.889,35.686 163.243 C 50.604 98.725,102.618 48.384,169.730 33.508 C 181.892 30.813,181.905 30.802,180.984 25.040 C 180.154 19.853,180.421 19.904,168.108 22.598 M236.757 26.988 C 236.757 30.458,237.257 32.652,238.108 32.910 C 291.866 49.228,322.920 70.313,347.325 107.063 C 360.421 126.785,367.960 144.652,373.426 168.919 C 374.046 171.675,374.489 171.892,379.480 171.892 C 385.726 171.892,385.603 172.318,382.768 160.541 C 366.769 94.062,313.514 40.221,248.108 24.400 C 243.946 23.393,239.689 22.324,238.649 22.023 C 237.023 21.553,236.757 22.251,236.757 26.988 M205.490 93.784 C 204.297 97.797,198.723 117.799,193.103 138.233 C 187.483 158.667,182.421 175.849,181.854 176.416 C 180.873 177.397,170.718 180.379,116.216 195.689 C 103.135 199.363,92.058 202.721,91.601 203.151 C 91.144 203.581,108.414 208.727,129.980 214.586 C 151.545 220.446,172.153 226.129,175.776 227.215 L 182.364 229.190 186.434 244.054 C 209.953 329.937,208.044 324.685,211.241 312.272 C 217.913 286.373,233.633 229.733,234.318 229.122 C 234.768 228.722,255.045 222.974,279.380 216.349 C 303.714 209.724,323.863 204.065,324.154 203.774 C 325.204 202.724,323.179 202.076,290.202 192.911 C 243.105 179.821,234.592 177.160,233.592 175.214 C 233.111 174.279,227.424 153.937,220.954 130.011 C 214.483 106.084,208.845 86.503,208.424 86.497 C 208.003 86.491,206.683 89.770,205.490 93.784 M208.574 146.216 C 208.442 191.217,208.125 200.015,206.634 199.987 C 206.256 199.980,201.329 195.674,195.687 190.417 L 185.428 180.859 187.928 171.241 C 190.133 162.756,205.657 106.295,207.144 101.351 C 208.532 96.737,208.704 102.129,208.574 146.216 M0.000 181.059 C 0.000 181.754,8.451 217.839,9.816 222.973 C 10.888 227.005,10.925 227.027,16.561 227.027 L 22.229 227.027 25.357 212.380 C 29.148 194.629,29.502 194.292,31.793 206.241 C 32.788 211.430,34.103 218.230,34.716 221.351 L 35.829 227.027 41.457 227.027 L 47.086 227.027 52.778 204.595 C 59.542 177.940,59.454 180.541,53.586 180.541 C 48.045 180.541,48.639 179.378,45.449 196.474 C 41.996 214.984,41.816 215.048,39.062 198.749 C 35.725 178.999,36.502 180.541,29.881 180.541 L 24.231 180.541 21.063 196.216 C 18.500 208.890,16.233 215.840,16.213 211.081 C 16.206 209.524,12.921 190.769,11.763 185.676 L 10.595 180.541 5.298 180.541 C 2.384 180.541,0.000 180.774,0.000 181.059 M369.730 203.814 L 369.730 227.088 384.595 226.787 L 399.459 226.486 399.799 221.738 L 400.139 216.989 390.870 217.741 C 379.712 218.646,379.871 218.725,380.364 212.526 L 380.758 207.568 389.298 207.568 L 397.838 207.568 397.838 203.243 L 397.838 198.919 389.298 198.919 L 380.758 198.919 380.364 193.960 C 379.878 187.853,379.780 187.912,390.010 188.218 L 398.378 188.468 398.714 184.504 L 399.049 180.541 384.390 180.541 L 369.730 180.541 369.730 203.814 M270.756 191.528 C 291.002 196.976,308.030 201.841,308.595 202.339 C 309.159 202.836,287.033 203.243,259.425 203.243 L 209.228 203.243 220.326 214.379 L 231.424 225.516 220.307 264.850 L 209.189 304.185 208.864 253.444 L 208.539 202.703 219.675 192.163 C 233.020 179.532,226.481 179.614,270.756 191.528 M197.068 214.271 L 186.040 225.298 180.317 223.832 C 177.170 223.026,159.270 218.097,140.541 212.878 L 106.486 203.390 157.291 203.316 L 208.095 203.243 197.068 214.271 M23.320 238.649 C 39.211 310.398,89.488 363.332,158.675 381.157 C 176.747 385.813,188.108 387.082,188.108 384.445 C 188.108 377.675,185.560 375.537,175.240 373.649 C 109.720 361.662,56.602 314.420,38.339 251.892 C 36.169 244.459,34.210 237.770,33.987 237.027 C 33.015 233.787,22.594 235.372,23.320 238.649 M373.630 237.027 C 354.443 309.905,305.747 358.959,239.241 372.406 C 227.168 374.847,227.704 374.429,230.259 379.438 C 237.731 394.083,301.461 365.715,333.572 333.450 C 358.486 308.416,384.865 258.442,384.865 236.278 C 384.865 234.977,373.979 235.703,373.630 237.027 M202.239 359.731 C 190.216 365.862,191.313 377.227,204.630 384.493 C 218.202 391.898,217.742 396.367,203.447 395.982 L 194.750 395.748 194.023 399.062 C 193.018 403.638,194.339 404.517,203.169 405.149 C 226.649 406.829,233.366 388.254,213.172 377.490 C 201.481 371.259,201.164 367.568,212.321 367.568 C 219.980 367.568,223.074 365.813,222.490 361.801 C 221.898 357.732,208.788 356.392,202.239 359.731 " stroke="none" fill="#000000" fill-rule="evenodd"></path></g></svg>